<?xml version="1.0" encoding="UTF-8" standalone="no"?>
<!-- Created with Inkscape (http://www.inkscape.org/) -->

<svg
   xmlns:dc="http://purl.org/dc/elements/1.1/"
   xmlns:cc="http://creativecommons.org/ns#"
   xmlns:rdf="http://www.w3.org/1999/02/22-rdf-syntax-ns#"
   xmlns:svg="http://www.w3.org/2000/svg"
   xmlns="http://www.w3.org/2000/svg"
   xmlns:sodipodi="http://sodipodi.sourceforge.net/DTD/sodipodi-0.dtd"
   xmlns:inkscape="http://www.inkscape.org/namespaces/inkscape"
   version="1.1"
   width="301.875"
   height="201.875"
   id="svg3250"
   inkscape:version="0.47 r22583"
   sodipodi:docname="Unix_vs_windows.svg">
  <metadata
     id="metadata2865">
    <rdf:RDF>
      <cc:Work
         rdf:about="">
        <dc:format>image/svg+xml</dc:format>
        <dc:type
           rdf:resource="http://purl.org/dc/dcmitype/StillImage" />
      </cc:Work>
    </rdf:RDF>
  </metadata>
  <sodipodi:namedview
     pagecolor="#ffffff"
     bordercolor="#666666"
     borderopacity="1"
     objecttolerance="10"
     gridtolerance="10"
     guidetolerance="10"
     inkscape:pageopacity="0"
     inkscape:pageshadow="2"
     inkscape:window-width="1024"
     inkscape:window-height="600"
     id="namedview2863"
     showgrid="false"
     showguides="true"
     inkscape:guide-bbox="true"
     inkscape:zoom="4.676161"
     inkscape:cx="52.852506"
     inkscape:cy="152.21148"
     inkscape:window-x="0"
     inkscape:window-y="0"
     inkscape:window-maximized="1"
     inkscape:current-layer="svg3250">
    <sodipodi:guide
       orientation="1,0"
       position="24.806674,127.88268"
       id="guide2915" />
    <sodipodi:guide
       orientation="0,1"
       position="10.692532,7.6986229"
       id="guide3061" />
  </sodipodi:namedview>
  <defs
     id="defs3252">
    <inkscape:perspective
       sodipodi:type="inkscape:persp3d"
       inkscape:vp_x="0 : 100.9375 : 1"
       inkscape:vp_y="0 : 1000 : 0"
       inkscape:vp_z="301.875 : 100.9375 : 1"
       inkscape:persp3d-origin="150.9375 : 67.291667 : 1"
       id="perspective2867" />
    <clipPath
       id="clipPath3060">
      <path
         d="m 218,653.9 251.76,0 0,-169.02 -251.76,0 0,169.02 z"
         id="path3062" />
    </clipPath>
    <clipPath
       id="clipPath3066">
      <path
         d="M 0,782 585,782 585,0 0,0 0,782 z"
         id="path3068" />
    </clipPath>
    <clipPath
       id="clipPath3072">
      <path
         d="m 0,781.98 585,0 0,-782.04 -585,0 0,782.04 z"
         id="path3074" />
    </clipPath>
    <inkscape:perspective
       id="perspective2939"
       inkscape:persp3d-origin="0.5 : 0.33333333 : 1"
       inkscape:vp_z="1 : 0.5 : 1"
       inkscape:vp_y="0 : 1000 : 0"
       inkscape:vp_x="0 : 0.5 : 1"
       sodipodi:type="inkscape:persp3d" />
    <inkscape:perspective
       id="perspective2964"
       inkscape:persp3d-origin="0.5 : 0.33333333 : 1"
       inkscape:vp_z="1 : 0.5 : 1"
       inkscape:vp_y="0 : 1000 : 0"
       inkscape:vp_x="0 : 0.5 : 1"
       sodipodi:type="inkscape:persp3d" />
    <inkscape:perspective
       id="perspective2964-4"
       inkscape:persp3d-origin="0.5 : 0.33333333 : 1"
       inkscape:vp_z="1 : 0.5 : 1"
       inkscape:vp_y="0 : 1000 : 0"
       inkscape:vp_x="0 : 0.5 : 1"
       sodipodi:type="inkscape:persp3d" />
    <inkscape:perspective
       id="perspective2964-45"
       inkscape:persp3d-origin="0.5 : 0.33333333 : 1"
       inkscape:vp_z="1 : 0.5 : 1"
       inkscape:vp_y="0 : 1000 : 0"
       inkscape:vp_x="0 : 0.5 : 1"
       sodipodi:type="inkscape:persp3d" />
    <inkscape:perspective
       id="perspective3011"
       inkscape:persp3d-origin="0.5 : 0.33333333 : 1"
       inkscape:vp_z="1 : 0.5 : 1"
       inkscape:vp_y="0 : 1000 : 0"
       inkscape:vp_x="0 : 0.5 : 1"
       sodipodi:type="inkscape:persp3d" />
    <inkscape:perspective
       id="perspective3040"
       inkscape:persp3d-origin="0.5 : 0.33333333 : 1"
       inkscape:vp_z="1 : 0.5 : 1"
       inkscape:vp_y="0 : 1000 : 0"
       inkscape:vp_x="0 : 0.5 : 1"
       sodipodi:type="inkscape:persp3d" />
    <inkscape:perspective
       id="perspective3071"
       inkscape:persp3d-origin="0.5 : 0.33333333 : 1"
       inkscape:vp_z="1 : 0.5 : 1"
       inkscape:vp_y="0 : 1000 : 0"
       inkscape:vp_x="0 : 0.5 : 1"
       sodipodi:type="inkscape:persp3d" />
    <inkscape:perspective
       id="perspective3138"
       inkscape:persp3d-origin="0.5 : 0.33333333 : 1"
       inkscape:vp_z="1 : 0.5 : 1"
       inkscape:vp_y="0 : 1000 : 0"
       inkscape:vp_x="0 : 0.5 : 1"
       sodipodi:type="inkscape:persp3d" />
    <inkscape:perspective
       id="perspective3163"
       inkscape:persp3d-origin="0.5 : 0.33333333 : 1"
       inkscape:vp_z="1 : 0.5 : 1"
       inkscape:vp_y="0 : 1000 : 0"
       inkscape:vp_x="0 : 0.5 : 1"
       sodipodi:type="inkscape:persp3d" />
    <inkscape:perspective
       id="perspective3344"
       inkscape:persp3d-origin="0.5 : 0.33333333 : 1"
       inkscape:vp_z="1 : 0.5 : 1"
       inkscape:vp_y="0 : 1000 : 0"
       inkscape:vp_x="0 : 0.5 : 1"
       sodipodi:type="inkscape:persp3d" />
  </defs>
  <path
     style="fill:none;stroke:#000000;stroke-width:0.625;stroke-linecap:butt;stroke-linejoin:miter;stroke-miterlimit:4;stroke-opacity:1;stroke-dasharray:none"
     id="path3076"
     d="m 43.90625,38.8275 67.65625,0 m 43.75,0 136.09375,0 m -247.5,31.40625 247.5,0 m -247.5,30.9375 247.5,0 m -247.5,31.64125 247.5,0 M 37.8125,16.09375 l 0,155.25875 246.09375,0.36625 m -240,-7.5 246.5625,0 0,-153.28125 -246.5625,0 0,153.28125 z" />
  <path
     style="fill:#ede100;fill-opacity:1;fill-rule:nonzero;stroke:#000000;stroke-width:1.25;stroke-linecap:butt;stroke-linejoin:miter;stroke-miterlimit:4;stroke-opacity:1;stroke-dasharray:none"
     id="path3078"
     d="m 54.6875,167.96875 24.375,0 0,-140.15625 -24.375,0 0,140.15625 z" />
  <path
     style="fill:#ede100;fill-opacity:1;fill-rule:nonzero;stroke:#000000;stroke-width:1.25;stroke-linecap:butt;stroke-linejoin:miter;stroke-miterlimit:4;stroke-opacity:1;stroke-dasharray:none"
     id="path3080"
     d="m 102.96875,167.96875 24.375,0 0,-66.09375 -24.375,0 0,66.09375 z" />
  <path
     style="fill:#ede100;fill-opacity:1;fill-rule:nonzero;stroke:#000000;stroke-width:1.25;stroke-linecap:butt;stroke-linejoin:miter;stroke-miterlimit:4;stroke-opacity:1;stroke-dasharray:none"
     id="path3082"
     d="m 151.25,167.96875 24.375,0 0,-13.59375 -24.375,0 0,13.59375 z" />
  <path
     style="fill:#ede100;fill-opacity:1;fill-rule:nonzero;stroke:#000000;stroke-width:1.25;stroke-linecap:butt;stroke-linejoin:miter;stroke-miterlimit:4;stroke-opacity:1;stroke-dasharray:none"
     id="path3084"
     d="m 199.765,167.96875 24.375,0 0,-9.375 -24.375,0 0,9.375 z" />
  <path
     style="fill:#ede100;fill-opacity:1;fill-rule:nonzero;stroke:#000000;stroke-width:1.25;stroke-linecap:butt;stroke-linejoin:miter;stroke-miterlimit:4;stroke-opacity:1;stroke-dasharray:none"
     id="path3086"
     d="m 247.8125,167.96875 24.375,0 0,-4.6875 -24.375,0 0,4.6875 z" />
  <path
     style="fill:none;stroke:#000000;stroke-width:0.625;stroke-linecap:butt;stroke-linejoin:miter;stroke-miterlimit:4;stroke-opacity:1;stroke-dasharray:none"
     id="path3088"
     d="m 43.90625,164.21875 -13.125,15" />
  <path
     style="fill:none;stroke:#000000;stroke-width:2.5;stroke-linecap:butt;stroke-linejoin:miter;stroke-miterlimit:4;stroke-opacity:1;stroke-dasharray:none"
     id="path3090"
     d="m 54.805,27.8125 24.2575,0 0,140.15625 m 24.375,-66.09375 23.90625,0 0,65.85875 M 151.25,154.375 l 24.375,0 0,13.35875 m 24.14,-9.14 24.375,0 0,9.2575 m 23.6725,-4.57 24.375,0 0,4.6875" />
  <path
     style="fill:#0094cf;fill-opacity:1;fill-rule:nonzero;stroke:#000000;stroke-width:1.25;stroke-linecap:butt;stroke-linejoin:miter;stroke-miterlimit:4;stroke-opacity:1;stroke-dasharray:none"
     id="path3092"
     d="m 48.35875,175.9375 24.375,0 0,-8.90625 -24.375,0 0,8.90625 z" />
  <path
     style="fill:none;stroke:#000000;stroke-width:2.5;stroke-linecap:butt;stroke-linejoin:miter;stroke-miterlimit:4;stroke-opacity:1;stroke-dasharray:none"
     id="path3094"
     d="m 48.535,167.03125 24.19875,0 0,8.78875" />
  <path
     style="fill:#0094cf;fill-opacity:1;fill-rule:nonzero;stroke:#000000;stroke-width:1.25;stroke-linecap:butt;stroke-linejoin:miter;stroke-miterlimit:4;stroke-opacity:1;stroke-dasharray:none"
     id="path3096"
     d="m 96.64,175.9375 24.375,0 0,-46.875 -24.375,0 0,46.875 z" />
  <path
     style="fill:none;stroke:#000000;stroke-width:2.5;stroke-linecap:butt;stroke-linejoin:miter;stroke-miterlimit:4;stroke-opacity:1;stroke-dasharray:none"
     id="path3098"
     d="m 96.81625,129.0625 24.19875,0 0,46.81625" />
  <path
     style="fill:#0094cf;fill-opacity:1;fill-rule:nonzero;stroke:#000000;stroke-width:1.25;stroke-linecap:butt;stroke-linejoin:miter;stroke-miterlimit:4;stroke-opacity:1;stroke-dasharray:none"
     id="path3100"
     d="m 144.92125,175.9375 24.375,0 0,-108.75 -24.375,0 0,108.75 z" />
  <path
     style="fill:none;stroke:#000000;stroke-width:2.5;stroke-linecap:butt;stroke-linejoin:miter;stroke-miterlimit:4;stroke-opacity:1;stroke-dasharray:none"
     id="path3102"
     d="m 144.92125,67.1875 24.375,-0.05875 0,108.75" />
  <path
     style="fill:#0094cf;fill-opacity:1;fill-rule:nonzero;stroke:#000000;stroke-width:1.25;stroke-linecap:butt;stroke-linejoin:miter;stroke-miterlimit:4;stroke-opacity:1;stroke-dasharray:none"
     id="path3104"
     d="m 193.4375,175.9375 24.375,0 0,-136.875 -24.375,0 0,136.875 z" />
  <path
     style="fill:none;stroke:#000000;stroke-width:2.5;stroke-linecap:butt;stroke-linejoin:miter;stroke-miterlimit:4;stroke-opacity:1;stroke-dasharray:none"
     id="path3106"
     d="m 193.67125,39.0625 24.14125,0 0,136.64" />
  <path
     style="fill:#0094cf;fill-opacity:1;fill-rule:nonzero;stroke:#000000;stroke-width:1.25;stroke-linecap:butt;stroke-linejoin:miter;stroke-miterlimit:4;stroke-opacity:1;stroke-dasharray:none"
     id="path3108"
     d="m 241.48375,175.9375 24.375,0 0,-143.90625 -24.375,0 0,143.90625 z" />
  <path
     style="fill:none;stroke:#000000;stroke-width:2.5;stroke-linecap:butt;stroke-linejoin:miter;stroke-miterlimit:4;stroke-opacity:1;stroke-dasharray:none"
     id="path3110"
     d="m 241.48375,32.03125 24.375,0 0,143.67125" />
  <path
     style="fill:none;stroke:#ffffff;stroke-width:2.5;stroke-linecap:butt;stroke-linejoin:miter;stroke-miterlimit:4;stroke-opacity:1;stroke-dasharray:none"
     id="path3112"
     d="m 53.515,27.5775 3.28125,-2.8125 m 44.76625,77.34375 3.28125,-2.8125 m -9.61,29.76625 3.28125,-2.8125 m -52.5,41.9525 3.28125,-2.8125 M 72.5,177.10875 l 3.28125,-2.8125 m 2.93,-4.92125 3.28125,-2.8125 m 39.0225,10.54625 3.28125,-2.8125 m 3.0475,-4.92125 3.28125,-2.8125 m 38.90625,10.54625 3.28125,-2.8125 m 2.5775,-4.92125 3.28125,-2.8125 m 39.375,10.54625 3.28125,-2.8125 m 3.0475,-4.92125 3.28125,-2.8125 m 38.4375,10.54625 3.28125,-2.8125 m 2.5775,-4.92125 3.28125,-2.8125 M 143.515,67.1875 146.79625,64.375 m 44.53125,-24.61 3.28125,-2.8125 m 45.235,-4.6875 3.28125,-2.8125" />
  <path
     style="fill:none;stroke:#000000;stroke-width:0.625;stroke-linecap:butt;stroke-linejoin:miter;stroke-miterlimit:4;stroke-opacity:1;stroke-dasharray:none"
     id="path3114"
     d="m 30.54625,21.9525 -4.21875,0 m 4.21875,31.40625 -4.21875,0 m 4.21875,31.40625 -4.21875,0 m 4.21875,31.4075 -4.21875,0 m 4.21875,31.40625 -4.21875,0 m 4.33625,31.5225 -4.21875,0 m 17.46125,-46.52375 -13.125,15 m 13.125,-46.40625 -13.125,15 M 43.90625,70 30.78125,85 m 13.125,-46.40625 -13.125,15" />
  <path
     style="fill:none;stroke:#000000;stroke-width:1.25;stroke-linecap:butt;stroke-linejoin:miter;stroke-miterlimit:4;stroke-opacity:1;stroke-dasharray:none"
     id="path3116"
     d="m 44.375,10.9375 246.09375,0 0,153.28125 -13.125,15 -246.5625,0 0,-157.5 13.125,-10.78125" />
  <path
     style="fill:#0094cf;fill-opacity:1;fill-rule:nonzero;stroke:#000000;stroke-width:0.9375;stroke-linecap:butt;stroke-linejoin:miter;stroke-miterlimit:4;stroke-opacity:1;stroke-dasharray:none"
     id="path3138"
     d="m 117.8125,31.5625 10,0 0,-10 -10,0 0,10 z" />
  <path
     style="fill:#e6da00;fill-opacity:1;fill-rule:nonzero;stroke:#000000;stroke-width:0.9375;stroke-linecap:butt;stroke-linejoin:miter;stroke-miterlimit:4;stroke-opacity:1;stroke-dasharray:none"
     id="path3140"
     d="m 117.8125,45.9375 10,0 0,-10 -10,0 0,10 z" />
  <path
     style="fill:none;stroke:#000000;stroke-width:0.625;stroke-linecap:butt;stroke-linejoin:miter;stroke-miterlimit:4;stroke-opacity:1;stroke-dasharray:none"
     id="path3142"
     d="m 0.3125,201.5625 301.25,0 0,-201.25 -301.25,0 0,201.25 z" />
  <text
     xml:space="preserve"
     style="font-size:11px;font-style:normal;font-weight:normal;fill:#000000;fill-opacity:1;stroke:none;font-family:Bitstream Vera Sans"
     x="4.2025781"
     y="25.826"
     id="text2907"><tspan
       sodipodi:role="line"
       id="tspan2909"
       x="4.2025781"
       y="25.826">100</tspan></text>
  <text
     xml:space="preserve"
     style="font-size:11px;font-style:normal;font-weight:normal;fill:#000000;fill-opacity:1;stroke:none;font-family:Bitstream Vera Sans"
     x="11.144597"
     y="57.034958"
     id="text2911"><tspan
       sodipodi:role="line"
       id="tspan2913"
       x="11.144597"
       y="57.034958">80</tspan></text>
  <text
     xml:space="preserve"
     style="font-size:11px;font-style:normal;font-weight:normal;fill:#000000;fill-opacity:1;stroke:none;font-family:Bitstream Vera Sans"
     x="11.532565"
     y="88.472893"
     id="text2911-9"><tspan
       sodipodi:role="line"
       id="tspan2913-3"
       x="11.532565"
       y="88.472893">60</tspan></text>
  <text
     xml:space="preserve"
     style="font-size:11px;font-style:normal;font-weight:normal;fill:#000000;fill-opacity:1;stroke:none;font-family:Bitstream Vera Sans"
     x="11.381877"
     y="120.33889"
     id="text2911-9-1"><tspan
       sodipodi:role="line"
       id="tspan2913-3-9"
       x="11.381877"
       y="120.33889">40</tspan></text>
  <text
     xml:space="preserve"
     style="font-size:11px;font-style:normal;font-weight:normal;fill:#000000;fill-opacity:1;stroke:none;font-family:Bitstream Vera Sans"
     x="11.256606"
     y="150.83095"
     id="text2911-9-7"><tspan
       sodipodi:role="line"
       id="tspan2913-3-8"
       x="11.256606"
       y="150.83095">20</tspan></text>
  <text
     xml:space="preserve"
     style="font-size:11px;font-style:normal;font-weight:normal;fill:#000000;fill-opacity:1;stroke:none;font-family:Bitstream Vera Sans"
     x="18.043844"
     y="182.28958"
     id="text2911-9-0"><tspan
       sodipodi:role="line"
       id="tspan2913-3-3"
       x="18.043844"
       y="182.28958">0</tspan></text>
  <text
     xml:space="preserve"
     style="font-size:11px;font-style:normal;font-weight:normal;fill:#000000;fill-opacity:1;stroke:none;font-family:Bitstream Vera Sans"
     x="130.32721"
     y="29.37677"
     id="text2907-6"><tspan
       sodipodi:role="line"
       id="tspan2909-1"
       x="130.32721"
       y="29.37677">windows</tspan></text>
  <text
     xml:space="preserve"
     style="font-size:16px;font-style:normal;font-weight:normal;fill:#000000;fill-opacity:1;stroke:none;font-family:Bitstream Vera Sans"
     x="130.95239"
     y="42.494144"
     id="text3028"><tspan
       sodipodi:role="line"
       id="tspan3030"
       x="130.95239"
       y="42.494144" /></text>
  <text
     xml:space="preserve"
     style="font-size:11px;font-style:normal;font-weight:normal;fill:#000000;fill-opacity:1;stroke:none;font-family:Bitstream Vera Sans"
     x="130.12181"
     y="44.329113"
     id="text2907-6-0"><tspan
       sodipodi:role="line"
       id="tspan2909-1-6"
       x="130.12181"
       y="44.329113">unix</tspan></text>
  <text
     xml:space="preserve"
     style="font-size:11px;font-style:normal;font-weight:normal;fill:#000000;fill-opacity:1;stroke:none;font-family:Bitstream Vera Sans"
     x="45.764038"
     y="194.17638"
     id="text3057"><tspan
       sodipodi:role="line"
       id="tspan3059"
       x="45.764038"
       y="194.17638">1993</tspan></text>
  <text
     xml:space="preserve"
     style="font-size:11px;font-style:normal;font-weight:normal;fill:#000000;fill-opacity:1;stroke:none;font-family:Bitstream Vera Sans"
     x="141.93752"
     y="194.17638"
     id="text3057-3"><tspan
       sodipodi:role="line"
       id="tspan3059-2"
       x="141.93752"
       y="194.17638">1995</tspan></text>
  <text
     xml:space="preserve"
     style="font-size:11px;font-style:normal;font-weight:normal;fill:#000000;fill-opacity:1;stroke:none;font-family:Bitstream Vera Sans"
     x="192.133"
     y="194.17638"
     id="text3057-3-0"><tspan
       sodipodi:role="line"
       id="tspan3059-2-6"
       x="192.133"
       y="194.17638">1996</tspan></text>
  <text
     xml:space="preserve"
     style="font-size:11px;font-style:normal;font-weight:normal;fill:#000000;fill-opacity:1;stroke:none;font-family:Bitstream Vera Sans"
     x="240.88297"
     y="194.17638"
     id="text3057-3-0-1"><tspan
       sodipodi:role="line"
       id="tspan3059-2-6-5"
       x="240.88297"
       y="194.17638">1997</tspan></text>
  <text
     xml:space="preserve"
     style="font-size:11px;font-style:normal;font-weight:normal;fill:#000000;fill-opacity:1;stroke:none;font-family:Bitstream Vera Sans"
     x="93.490181"
     y="194.17638"
     id="text3057-5"><tspan
       sodipodi:role="line"
       id="tspan3059-4"
       x="93.490181"
       y="194.17638">1994</tspan></text>
</svg>
